<?xml version="1.0" encoding="UTF-8" standalone="no"?>
<!DOCTYPE svg PUBLIC "-//W3C//DTD SVG 1.1//EN"
 "http://www.w3.org/Graphics/SVG/1.1/DTD/svg11.dtd">
<!-- Generated by graphviz version 2.43.0 (0)
 -->
<!-- Title: g Pages: 1 -->
<svg width="405pt" height="493pt"
 viewBox="0.00 0.00 404.50 493.00" xmlns="http://www.w3.org/2000/svg" xmlns:xlink="http://www.w3.org/1999/xlink">
<g id="graph0" class="graph" transform="scale(1 1) rotate(0) translate(4 489)">
<title>g</title>
<polygon fill="white" stroke="transparent" points="-4,4 -4,-489 400.5,-489 400.5,4 -4,4"/>
<!-- n0&#45;&gt;n13 -->
<g id="edge1" class="edge">
<title>n0&#45;&gt;n13</title>
<path fill="none" stroke="deepskyblue" stroke-width="6" d="M85,-376.7C85,-359.53 85,-334.66 85,-326.61"/>
</g>
<!-- n1&#45;&gt;n12 -->
<g id="edge2" class="edge">
<title>n1&#45;&gt;n12</title>
<path fill="none" stroke="deepskyblue" stroke-width="2" d="M18,-448.7C18,-434.45 18,-414.88 18,-404.05"/>
</g>
<!-- n2&#45;&gt;n6 -->
<g id="edge3" class="edge">
<title>n2&#45;&gt;n6</title>
<path fill="none" stroke="deepskyblue" stroke-width="6" d="M345.91,-452.17C353.25,-437.51 364.55,-414.9 370.32,-403.35"/>
</g>
<!-- n2&#45;&gt;n9 -->
<g id="edge4" class="edge">
<title>n2&#45;&gt;n9</title>
<path fill="none" stroke="deepskyblue" stroke-width="6" d="M332.09,-452.17C324.75,-437.51 313.45,-414.9 307.68,-403.35"/>
</g>
<!-- n3&#45;&gt;n7 -->
<g id="edge5" class="edge">
<title>n3&#45;&gt;n7</title>
<path fill="none" stroke="deepskyblue" stroke-width="6" d="M205.91,-452.17C213.25,-437.51 224.55,-414.9 230.32,-403.35"/>
</g>
<!-- n3&#45;&gt;n10 -->
<g id="edge6" class="edge">
<title>n3&#45;&gt;n10</title>
<path fill="none" stroke="deepskyblue" stroke-width="6" d="M192.09,-452.17C184.75,-437.51 173.45,-414.9 167.68,-403.35"/>
</g>
<!-- n4&#45;&gt;n5 -->
<g id="edge7" class="edge">
<title>n4&#45;&gt;n5</title>
<path fill="none" stroke="deepskyblue" stroke-width="6" d="M200,-71.82C200,-65.99 200,-51.66 200,-39.4"/>
<polygon fill="deepskyblue" stroke="deepskyblue" stroke-width="6" points="202.63,-39.3 200,-34.3 197.38,-39.3 202.63,-39.3"/>
</g>
<!-- n6&#45;&gt;n8 -->
<g id="edge8" class="edge">
<title>n6&#45;&gt;n8</title>
<path fill="none" stroke="deepskyblue" stroke-width="2" d="M366.41,-389.7C360.17,-386.2 351.07,-381.17 343,-377 312.59,-361.28 276.81,-344.13 254.76,-333.72"/>
<polygon fill="deepskyblue" stroke="deepskyblue" stroke-width="2" points="255.28,-332.03 250.01,-331.48 253.78,-335.2 255.28,-332.03"/>
</g>
<!-- n7&#45;&gt;n8 -->
<g id="edge9" class="edge">
<title>n7&#45;&gt;n8</title>
<path fill="none" stroke="deepskyblue" stroke-width="2" d="M234,-385.97C234,-376.4 234,-359.99 234,-346.46"/>
<polygon fill="deepskyblue" stroke="deepskyblue" stroke-width="2" points="235.75,-346.25 234,-341.25 232.25,-346.25 235.75,-346.25"/>
</g>
<!-- n8&#45;&gt;n16 -->
<g id="edge10" class="edge">
<title>n8&#45;&gt;n16</title>
<path fill="none" stroke="deepskyblue" stroke-width="2" d="M231.54,-305.08C227.48,-277.54 218.92,-221.32 210,-174 206.82,-157.12 202.21,-136.97 200.59,-130.01"/>
</g>
<!-- n9&#45;&gt;n11 -->
<g id="edge11" class="edge">
<title>n9&#45;&gt;n11</title>
<path fill="none" stroke="deepskyblue" stroke-width="6" d="M296.13,-390.04C275.09,-379.44 217.01,-350.19 185.68,-334.41"/>
<polygon fill="deepskyblue" stroke="deepskyblue" stroke-width="6" points="186.53,-331.91 180.89,-332 184.17,-336.59 186.53,-331.91"/>
</g>
<!-- n10&#45;&gt;n11 -->
<g id="edge12" class="edge">
<title>n10&#45;&gt;n11</title>
<path fill="none" stroke="deepskyblue" stroke-width="6" d="M164.11,-385.97C164.25,-376.4 164.49,-359.99 164.68,-346.46"/>
<polygon fill="deepskyblue" stroke="deepskyblue" stroke-width="6" points="167.31,-346.29 164.75,-341.25 162.06,-346.21 167.31,-346.29"/>
</g>
<!-- n11&#45;&gt;n14 -->
<g id="edge13" class="edge">
<title>n11&#45;&gt;n14</title>
<path fill="none" stroke="deepskyblue" stroke-width="6" d="M165,-304.7C165,-295.46 165,-283.98 165,-274.11"/>
<polygon fill="deepskyblue" stroke="deepskyblue" stroke-width="6" points="167.63,-274.1 165,-269.1 162.38,-274.1 167.63,-274.1"/>
</g>
<!-- n12&#45;&gt;n13 -->
<g id="edge14" class="edge">
<title>n12&#45;&gt;n13</title>
<path fill="none" stroke="deepskyblue" stroke-width="2" d="M23.71,-388.03C37.89,-373.22 74.18,-335.3 83.03,-326.06"/>
</g>
<!-- n13&#45;&gt;n14 -->
<g id="edge15" class="edge">
<title>n13&#45;&gt;n14</title>
<path fill="none" stroke="deepskyblue" stroke-width="6" d="M87.31,-319.98C96.1,-312.29 128,-284.38 148.09,-266.8"/>
<polygon fill="deepskyblue" stroke="deepskyblue" stroke-width="6" points="149.9,-268.7 151.94,-263.43 146.45,-264.75 149.9,-268.7"/>
</g>
<!-- n14&#45;&gt;n15 -->
<g id="edge16" class="edge">
<title>n14&#45;&gt;n15</title>
<path fill="none" stroke="deepskyblue" stroke-width="6" d="M166.61,-232.98C167.79,-220.49 169.34,-204.09 170.25,-194.48"/>
</g>
<!-- n15&#45;&gt;n16 -->
<g id="edge17" class="edge">
<title>n15&#45;&gt;n16</title>
<path fill="none" stroke="deepskyblue" stroke-width="6" d="M174.79,-177.05C181.3,-164.25 194.32,-138.67 198.6,-130.25"/>
</g>
<!-- n16&#45;&gt;n4 -->
<g id="edge18" class="edge">
<title>n16&#45;&gt;n4</title>
<path fill="none" stroke="deepskyblue" stroke-width="6" d="M200,-122.87C200,-115.75 200,-95.94 200,-84.65"/>
<polygon fill="deepskyblue" stroke="deepskyblue" stroke-width="6" points="202.63,-84.39 200,-79.39 197.38,-84.39 202.63,-84.39"/>
</g>
<!-- n0 -->
<g id="node1" class="node">
<title>n0</title>
<ellipse fill="lightgrey" stroke="black" stroke-width="0" cx="85" cy="-395" rx="18" ry="18"/>
<text text-anchor="middle" x="85" y="-391.3" font-family="Helvetica,sans-Serif" font-size="14.00">16248</text>
</g>
<!-- n1 -->
<g id="node2" class="node">
<title>n1</title>
<ellipse fill="lightgrey" stroke="black" stroke-width="0" cx="18" cy="-467" rx="18" ry="18"/>
<text text-anchor="middle" x="18" y="-463.3" font-family="Helvetica,sans-Serif" font-size="14.00">0</text>
</g>
<!-- n2 -->
<g id="node3" class="node">
<title>n2</title>
<polygon fill="coral" stroke="black" stroke-width="0" points="312,-461.44 339,-449 366,-461.44 365.97,-481.56 312.03,-481.56 312,-461.44"/>
<text text-anchor="middle" x="339" y="-463.3" font-family="Helvetica,sans-Serif" font-size="14.00">fp_a</text>
</g>
<!-- n3 -->
<g id="node4" class="node">
<title>n3</title>
<polygon fill="coral" stroke="black" stroke-width="0" points="172,-461.44 199,-449 226,-461.44 225.97,-481.56 172.03,-481.56 172,-461.44"/>
<text text-anchor="middle" x="199" y="-463.3" font-family="Helvetica,sans-Serif" font-size="14.00">fp_b</text>
</g>
<!-- n4 -->
<g id="node5" class="node">
<title>n4</title>
<ellipse fill="#bfefff" stroke="black" stroke-width="0" cx="200" cy="-75.5" rx="3.5" ry="3.5"/>
</g>
<!-- n5 -->
<g id="node6" class="node">
<title>n5</title>
<polygon fill="lawngreen" stroke="black" stroke-width="0" points="227,-23.56 200,-36 173,-23.56 173.03,-3.44 226.97,-3.44 227,-23.56"/>
<text text-anchor="middle" x="200" y="-14.3" font-family="Helvetica,sans-Serif" font-size="14.00">fp_out</text>
</g>
<!-- n6 -->
<g id="node7" class="node">
<title>n6</title>
<ellipse fill="#f0ffff" stroke="black" stroke-width="0" cx="374" cy="-395" rx="9" ry="9"/>
<text text-anchor="middle" x="374" y="-391.3" font-family="Helvetica,sans-Serif" font-size="14.00">[15]</text>
</g>
<!-- n7 -->
<g id="node8" class="node">
<title>n7</title>
<ellipse fill="#f0ffff" stroke="black" stroke-width="0" cx="234" cy="-395" rx="9" ry="9"/>
<text text-anchor="middle" x="234" y="-391.3" font-family="Helvetica,sans-Serif" font-size="14.00">[15]</text>
</g>
<!-- n8 -->
<g id="node9" class="node">
<title>n8</title>
<ellipse fill="#bfefff" stroke="black" stroke-width="0" cx="234" cy="-323" rx="18" ry="18"/>
<text text-anchor="middle" x="234" y="-319.3" font-family="Helvetica,sans-Serif" font-size="14.00">xor</text>
</g>
<!-- n9 -->
<g id="node10" class="node">
<title>n9</title>
<ellipse fill="#f0ffff" stroke="black" stroke-width="0" cx="304" cy="-395" rx="9" ry="9"/>
<text text-anchor="middle" x="304" y="-391.3" font-family="Helvetica,sans-Serif" font-size="14.00">[14:0]</text>
</g>
<!-- n10 -->
<g id="node11" class="node">
<title>n10</title>
<ellipse fill="#f0ffff" stroke="black" stroke-width="0" cx="164" cy="-395" rx="9" ry="9"/>
<text text-anchor="middle" x="164" y="-391.3" font-family="Helvetica,sans-Serif" font-size="14.00">[14:0]</text>
</g>
<!-- n11 -->
<g id="node12" class="node">
<title>n11</title>
<ellipse fill="#bfefff" stroke="black" stroke-width="0" cx="165" cy="-323" rx="18" ry="18"/>
<text text-anchor="middle" x="165" y="-319.3" font-family="Helvetica,sans-Serif" font-size="14.00">+</text>
</g>
<!-- n12 -->
<g id="node13" class="node">
<title>n12</title>
<ellipse fill="#f0ffff" stroke="black" stroke-width="0" cx="18" cy="-395" rx="9" ry="9"/>
<text text-anchor="middle" x="18" y="-391.3" font-family="Helvetica,sans-Serif" font-size="14.00">[0]</text>
</g>
<!-- n13 -->
<g id="node14" class="node">
<title>n13</title>
<ellipse fill="#bfefff" stroke="black" stroke-width="0" cx="85" cy="-323" rx="3.5" ry="3.5"/>
<text text-anchor="middle" x="85" y="-319.3" font-family="Helvetica,sans-Serif" font-size="14.00">concat</text>
</g>
<!-- n14 -->
<g id="node15" class="node">
<title>n14</title>
<ellipse fill="#bfefff" stroke="black" stroke-width="0" cx="165" cy="-251" rx="18" ry="18"/>
<text text-anchor="middle" x="165" y="-247.3" font-family="Helvetica,sans-Serif" font-size="14.00">&#45;</text>
</g>
<!-- n15 -->
<g id="node16" class="node">
<title>n15</title>
<ellipse fill="#f0ffff" stroke="black" stroke-width="0" cx="171" cy="-185.5" rx="9" ry="9"/>
<text text-anchor="middle" x="171" y="-181.8" font-family="Helvetica,sans-Serif" font-size="14.00">[14:0]</text>
</g>
<!-- n16 -->
<g id="node17" class="node">
<title>n16</title>
<ellipse fill="#bfefff" stroke="black" stroke-width="0" cx="200" cy="-126.5" rx="3.5" ry="3.5"/>
<text text-anchor="middle" x="200" y="-122.8" font-family="Helvetica,sans-Serif" font-size="14.00">concat</text>
</g>
</g>
</svg>

