<?xml version="1.0" encoding="UTF-8" standalone="no"?>
<!DOCTYPE svg PUBLIC "-//W3C//DTD SVG 1.1//EN"
 "http://www.w3.org/Graphics/SVG/1.1/DTD/svg11.dtd">
<!-- Generated by graphviz version 2.43.20190912.0211 (20190912.0211)
 -->
<!-- Title: g Pages: 1 -->
<svg width="366pt" height="493pt"
 viewBox="0.00 0.00 365.50 493.00" xmlns="http://www.w3.org/2000/svg" xmlns:xlink="http://www.w3.org/1999/xlink">
<g id="graph0" class="graph" transform="scale(1 1) rotate(0) translate(4 489)">
<title>g</title>
<polygon fill="white" stroke="transparent" points="-4,4 -4,-489 361.5,-489 361.5,4 -4,4"/>
<!-- n0&#45;&gt;n13 -->
<g id="edge1" class="edge">
<title>n0&#45;&gt;n13</title>
<path fill="none" stroke="deepskyblue" stroke-width="6" d="M79,-376.7C79,-359.53 79,-334.66 79,-326.61"/>
</g>
<!-- n1&#45;&gt;n12 -->
<g id="edge2" class="edge">
<title>n1&#45;&gt;n12</title>
<path fill="none" stroke="deepskyblue" stroke-width="2" d="M18,-448.7C18,-434.45 18,-414.88 18,-404.05"/>
</g>
<!-- n2&#45;&gt;n6 -->
<g id="edge3" class="edge">
<title>n2&#45;&gt;n6</title>
<path fill="none" stroke="deepskyblue" stroke-width="6" d="M312.48,-451.83C319.12,-437.29 329.22,-415.21 334.5,-403.65"/>
</g>
<!-- n2&#45;&gt;n9 -->
<g id="edge4" class="edge">
<title>n2&#45;&gt;n9</title>
<path fill="none" stroke="deepskyblue" stroke-width="6" d="M299.73,-451.83C293.29,-437.29 283.51,-415.21 278.39,-403.65"/>
</g>
<!-- n3&#45;&gt;n7 -->
<g id="edge5" class="edge">
<title>n3&#45;&gt;n7</title>
<path fill="none" stroke="deepskyblue" stroke-width="6" d="M186.48,-451.83C193.12,-437.29 203.22,-415.21 208.5,-403.65"/>
</g>
<!-- n3&#45;&gt;n10 -->
<g id="edge6" class="edge">
<title>n3&#45;&gt;n10</title>
<path fill="none" stroke="deepskyblue" stroke-width="6" d="M173.73,-451.83C167.29,-437.29 157.51,-415.21 152.39,-403.65"/>
</g>
<!-- n4&#45;&gt;n5 -->
<g id="edge7" class="edge">
<title>n4&#45;&gt;n5</title>
<path fill="none" stroke="deepskyblue" stroke-width="6" d="M181,-71.82C181,-65.99 181,-51.66 181,-39.4"/>
<polygon fill="deepskyblue" stroke="deepskyblue" stroke-width="6" points="183.63,-39.3 181,-34.3 178.38,-39.3 183.63,-39.3"/>
</g>
<!-- n6&#45;&gt;n8 -->
<g id="edge8" class="edge">
<title>n6&#45;&gt;n8</title>
<path fill="none" stroke="deepskyblue" stroke-width="2" d="M330.4,-389.46C324.57,-386 316.31,-381.14 309,-377 282.67,-362.1 251.99,-345.45 232.3,-334.86"/>
<polygon fill="deepskyblue" stroke="deepskyblue" stroke-width="2" points="232.77,-333.13 227.54,-332.3 231.11,-336.21 232.77,-333.13"/>
</g>
<!-- n7&#45;&gt;n8 -->
<g id="edge9" class="edge">
<title>n7&#45;&gt;n8</title>
<path fill="none" stroke="deepskyblue" stroke-width="2" d="M212,-385.97C212,-376.4 212,-359.99 212,-346.46"/>
<polygon fill="deepskyblue" stroke="deepskyblue" stroke-width="2" points="213.75,-346.25 212,-341.25 210.25,-346.25 213.75,-346.25"/>
</g>
<!-- n8&#45;&gt;n16 -->
<g id="edge10" class="edge">
<title>n8&#45;&gt;n16</title>
<path fill="none" stroke="deepskyblue" stroke-width="2" d="M209.47,-305.12C205.32,-277.62 196.77,-221.47 189,-174 186.25,-157.19 182.69,-137 181.45,-130.02"/>
</g>
<!-- n9&#45;&gt;n11 -->
<g id="edge11" class="edge">
<title>n9&#45;&gt;n11</title>
<path fill="none" stroke="deepskyblue" stroke-width="6" d="M267.56,-389.83C248.67,-379.26 198.42,-351.12 170.11,-335.26"/>
<polygon fill="deepskyblue" stroke="deepskyblue" stroke-width="6" points="171.07,-332.79 165.43,-332.64 168.51,-337.37 171.07,-332.79"/>
</g>
<!-- n10&#45;&gt;n11 -->
<g id="edge12" class="edge">
<title>n10&#45;&gt;n11</title>
<path fill="none" stroke="deepskyblue" stroke-width="6" d="M149.11,-385.97C149.25,-376.4 149.49,-359.99 149.68,-346.46"/>
<polygon fill="deepskyblue" stroke="deepskyblue" stroke-width="6" points="152.31,-346.29 149.75,-341.25 147.06,-346.21 152.31,-346.29"/>
</g>
<!-- n11&#45;&gt;n14 -->
<g id="edge13" class="edge">
<title>n11&#45;&gt;n14</title>
<path fill="none" stroke="deepskyblue" stroke-width="6" d="M150,-304.7C150,-295.46 150,-283.98 150,-274.11"/>
<polygon fill="deepskyblue" stroke="deepskyblue" stroke-width="6" points="152.63,-274.1 150,-269.1 147.38,-274.1 152.63,-274.1"/>
</g>
<!-- n12&#45;&gt;n13 -->
<g id="edge14" class="edge">
<title>n12&#45;&gt;n13</title>
<path fill="none" stroke="deepskyblue" stroke-width="2" d="M23.63,-387.54C36.72,-372.51 68.75,-335.77 77.02,-326.27"/>
</g>
<!-- n13&#45;&gt;n14 -->
<g id="edge15" class="edge">
<title>n13&#45;&gt;n14</title>
<path fill="none" stroke="deepskyblue" stroke-width="6" d="M81.05,-319.98C88.66,-312.48 115.78,-285.74 133.66,-268.11"/>
<polygon fill="deepskyblue" stroke="deepskyblue" stroke-width="6" points="135.82,-269.66 137.54,-264.28 132.14,-265.92 135.82,-269.66"/>
</g>
<!-- n14&#45;&gt;n15 -->
<g id="edge16" class="edge">
<title>n14&#45;&gt;n15</title>
<path fill="none" stroke="deepskyblue" stroke-width="6" d="M151.34,-232.98C152.32,-220.49 153.61,-204.09 154.37,-194.48"/>
</g>
<!-- n15&#45;&gt;n16 -->
<g id="edge17" class="edge">
<title>n15&#45;&gt;n16</title>
<path fill="none" stroke="deepskyblue" stroke-width="6" d="M158.4,-177.05C164.24,-164.25 175.9,-138.67 179.74,-130.25"/>
</g>
<!-- n16&#45;&gt;n4 -->
<g id="edge18" class="edge">
<title>n16&#45;&gt;n4</title>
<path fill="none" stroke="deepskyblue" stroke-width="6" d="M181,-122.87C181,-115.75 181,-95.94 181,-84.65"/>
<polygon fill="deepskyblue" stroke="deepskyblue" stroke-width="6" points="183.63,-84.39 181,-79.39 178.38,-84.39 183.63,-84.39"/>
</g>
<!-- n0 -->
<g id="node1" class="node">
<title>n0</title>
<ellipse fill="lightgrey" stroke="black" stroke-width="0" cx="79" cy="-395" rx="18" ry="18"/>
<text text-anchor="middle" x="79" y="-391.3" font-family="Helvetica,sans-Serif" font-size="14.00">16248</text>
</g>
<!-- n1 -->
<g id="node2" class="node">
<title>n1</title>
<ellipse fill="lightgrey" stroke="black" stroke-width="0" cx="18" cy="-467" rx="18" ry="18"/>
<text text-anchor="middle" x="18" y="-463.3" font-family="Helvetica,sans-Serif" font-size="14.00">0</text>
</g>
<!-- n2 -->
<g id="node3" class="node">
<title>n2</title>
<polygon fill="coral" stroke="black" stroke-width="0" points="279,-461.44 306,-449 333,-461.44 332.97,-481.56 279.03,-481.56 279,-461.44"/>
<text text-anchor="middle" x="306" y="-463.3" font-family="Helvetica,sans-Serif" font-size="14.00">fp_a</text>
</g>
<!-- n3 -->
<g id="node4" class="node">
<title>n3</title>
<polygon fill="coral" stroke="black" stroke-width="0" points="153,-461.44 180,-449 207,-461.44 206.97,-481.56 153.03,-481.56 153,-461.44"/>
<text text-anchor="middle" x="180" y="-463.3" font-family="Helvetica,sans-Serif" font-size="14.00">fp_b</text>
</g>
<!-- n4 -->
<g id="node5" class="node">
<title>n4</title>
<ellipse fill="#bfefff" stroke="black" stroke-width="0" cx="181" cy="-75.5" rx="3.5" ry="3.5"/>
</g>
<!-- n5 -->
<g id="node6" class="node">
<title>n5</title>
<polygon fill="lawngreen" stroke="black" stroke-width="0" points="208,-23.56 181,-36 154,-23.56 154.03,-3.44 207.97,-3.44 208,-23.56"/>
<text text-anchor="middle" x="181" y="-14.3" font-family="Helvetica,sans-Serif" font-size="14.00">fp_out</text>
</g>
<!-- n6 -->
<g id="node7" class="node">
<title>n6</title>
<ellipse fill="#f0ffff" stroke="black" stroke-width="0" cx="338" cy="-395" rx="9" ry="9"/>
<text text-anchor="middle" x="338" y="-391.3" font-family="Helvetica,sans-Serif" font-size="14.00">[15]</text>
</g>
<!-- n7 -->
<g id="node8" class="node">
<title>n7</title>
<ellipse fill="#f0ffff" stroke="black" stroke-width="0" cx="212" cy="-395" rx="9" ry="9"/>
<text text-anchor="middle" x="212" y="-391.3" font-family="Helvetica,sans-Serif" font-size="14.00">[15]</text>
</g>
<!-- n8 -->
<g id="node9" class="node">
<title>n8</title>
<ellipse fill="#bfefff" stroke="black" stroke-width="0" cx="212" cy="-323" rx="18" ry="18"/>
<text text-anchor="middle" x="212" y="-319.3" font-family="Helvetica,sans-Serif" font-size="14.00">xor</text>
</g>
<!-- n9 -->
<g id="node10" class="node">
<title>n9</title>
<ellipse fill="#f0ffff" stroke="black" stroke-width="0" cx="275" cy="-395" rx="9" ry="9"/>
<text text-anchor="middle" x="275" y="-391.3" font-family="Helvetica,sans-Serif" font-size="14.00">[14:0]</text>
</g>
<!-- n10 -->
<g id="node11" class="node">
<title>n10</title>
<ellipse fill="#f0ffff" stroke="black" stroke-width="0" cx="149" cy="-395" rx="9" ry="9"/>
<text text-anchor="middle" x="149" y="-391.3" font-family="Helvetica,sans-Serif" font-size="14.00">[14:0]</text>
</g>
<!-- n11 -->
<g id="node12" class="node">
<title>n11</title>
<ellipse fill="#bfefff" stroke="black" stroke-width="0" cx="150" cy="-323" rx="18" ry="18"/>
<text text-anchor="middle" x="150" y="-319.3" font-family="Helvetica,sans-Serif" font-size="14.00">+</text>
</g>
<!-- n12 -->
<g id="node13" class="node">
<title>n12</title>
<ellipse fill="#f0ffff" stroke="black" stroke-width="0" cx="18" cy="-395" rx="9" ry="9"/>
<text text-anchor="middle" x="18" y="-391.3" font-family="Helvetica,sans-Serif" font-size="14.00">[0]</text>
</g>
<!-- n13 -->
<g id="node14" class="node">
<title>n13</title>
<ellipse fill="#bfefff" stroke="black" stroke-width="0" cx="79" cy="-323" rx="3.5" ry="3.5"/>
<text text-anchor="middle" x="79" y="-319.3" font-family="Helvetica,sans-Serif" font-size="14.00">concat</text>
</g>
<!-- n14 -->
<g id="node15" class="node">
<title>n14</title>
<ellipse fill="#bfefff" stroke="black" stroke-width="0" cx="150" cy="-251" rx="18" ry="18"/>
<text text-anchor="middle" x="150" y="-247.3" font-family="Helvetica,sans-Serif" font-size="14.00">&#45;</text>
</g>
<!-- n15 -->
<g id="node16" class="node">
<title>n15</title>
<ellipse fill="#f0ffff" stroke="black" stroke-width="0" cx="155" cy="-185.5" rx="9" ry="9"/>
<text text-anchor="middle" x="155" y="-181.8" font-family="Helvetica,sans-Serif" font-size="14.00">[14:0]</text>
</g>
<!-- n16 -->
<g id="node17" class="node">
<title>n16</title>
<ellipse fill="#bfefff" stroke="black" stroke-width="0" cx="181" cy="-126.5" rx="3.5" ry="3.5"/>
<text text-anchor="middle" x="181" y="-122.8" font-family="Helvetica,sans-Serif" font-size="14.00">concat</text>
</g>
</g>
</svg>

